<svg id="Layer_1" data-name="Layer 1" xmlns="http://www.w3.org/2000/svg" viewBox="0 0 102.6 119.13"><defs><style>.cls-1{fill:#fff;}</style></defs><g id="Group_250" data-name="Group 250"><path id="Path_85" data-name="Path 85" class="cls-1" d="M15,83.58c0-1.63-.06-3.17,0-4.7a1.52,1.52,0,0,1,.82-1.06,39.16,39.16,0,0,1,4.49-1.58c1-.28,1.25-.8,1.24-2C21.44,62.47,25.28,52.87,33,45.52c1.6-1.52,3.44-2.7,5.43-4.25.22,3,.41,5.44.58,7.93.3,4.45.59,8.91.9,13.36a3.86,3.86,0,0,0,.22,1.65c.36.54.7,1.12,1.47,1.14.47,0,1-.8,1.31-1.38.19-.32.06-.9.06-1.36V36H59.61v2q0,12.33,0,24.67a6.08,6.08,0,0,0,.26,1.85,1.24,1.24,0,0,0,1.44.74c.63,0,1.1-.91,1.19-1.5.28-2,.35-4,.49-6q.54-7.76,1.06-15.52a5.59,5.59,0,0,1,.15-.71,25.88,25.88,0,0,1,7,5.45c6.7,7.3,10,16.35,9.85,27.15,0,1.18.2,1.75,1.2,2,1.52.41,3,1,4.5,1.52.66.21.92.58.89,1.4-.06,1.43,0,2.87,0,4.43Zm36.15-5.7H69.56c.39,0,.9.14,1.14-.1.48-.46,1.13-1.16,1.12-1.74s-.69-1.22-1.18-1.69c-.22-.2-.67-.07-1-.07H33c-.35,0-.81-.14-1,.06-.49.48-1.17,1.11-1.18,1.7s.64,1.27,1.12,1.74c.24.23.75.09,1.14.09H51.17"/></g></svg>