<svg id="Layer_1" data-name="Layer 1" xmlns="http://www.w3.org/2000/svg" xmlns:xlink="http://www.w3.org/1999/xlink" viewBox="0 0 82 82"><defs><style>.cls-1{fill:none;}.cls-2{fill:url(#linear-gradient);}.cls-3{clip-path:url(#clip-path);}.cls-4{fill:#fff;}</style><linearGradient id="linear-gradient" x1="-511.15" y1="844.46" x2="-511.14" y2="845.46" gradientTransform="matrix(82, 0, 0, -82, 41955.35, 69329.2)" gradientUnits="userSpaceOnUse"><stop offset="0" stop-color="#f18517"/><stop offset="1" stop-color="#efae2a"/></linearGradient><clipPath id="clip-path" transform="translate(-0.56 -1.37)"><rect class="cls-1" x="18.46" y="26.86" width="46.21" height="30.28"/></clipPath></defs><path id="Rectangle_388" data-name="Rectangle 388" class="cls-2" d="M.56,1.37h82v82h-67a15,15,0,0,1-15-15h0v-67Z" transform="translate(-0.56 -1.37)"/><g id="Group_338" data-name="Group 338"><g id="Group_339" data-name="Group 339"><g class="cls-3"><g id="Group_250" data-name="Group 250"><path id="Path_85" data-name="Path 85" class="cls-4" d="M18.47,57.15c0-1,0-2,0-3a1,1,0,0,1,.52-.68,26.17,26.17,0,0,1,2.86-1c.62-.17.8-.51.78-1.27-.1-7.49,2.34-13.6,7.28-18.28a43.73,43.73,0,0,1,3.45-2.7c.14,1.88.26,3.46.37,5l.57,8.51a2.36,2.36,0,0,0,.15,1c.22.34.44.71.93.73.3,0,.62-.52.83-.88.12-.2,0-.57,0-.87v-17H46.85v17A3.92,3.92,0,0,0,47,45a.79.79,0,0,0,.91.47c.4,0,.7-.58.76-.95.18-1.26.23-2.54.32-3.8.22-3.3.45-6.59.67-9.88a3.26,3.26,0,0,1,.09-.45A16.06,16.06,0,0,1,54.2,33.9a24,24,0,0,1,6.27,17.27c0,.76.12,1.12.77,1.29,1,.27,1.9.67,2.86,1,.42.13.58.37.56.89,0,.91,0,1.82,0,2.81Zm23-3.63h11.7c.25,0,.58.09.73-.06.31-.3.72-.74.71-1.11s-.44-.78-.75-1.08c-.13-.13-.42,0-.64,0H29.91c-.22,0-.51-.09-.65,0-.31.3-.74.71-.75,1.08s.41.81.71,1.11c.16.15.48,0,.73,0H41.49" transform="translate(-0.56 -1.37)"/></g></g></g></g></svg>