<svg id="Layer_1" data-name="Layer 1" xmlns="http://www.w3.org/2000/svg" viewBox="0 0 20.49 20.49"><defs><style>.cls-1{fill:#fff;}</style></defs><path class="cls-1" d="M163.24,59.67l7.06-7.07a1.49,1.49,0,0,0,0-2.12l-.61-.62a1.52,1.52,0,0,0-2.13,0l-7.06,7.07-7.06-7.07a1.52,1.52,0,0,0-2.13,0l-.61.62a1.49,1.49,0,0,0,0,2.12l7.06,7.07-7.06,7.06a1.5,1.5,0,0,0,0,2.13l.61.61a1.5,1.5,0,0,0,2.13,0l7.06-7.06,7.06,7.06a1.5,1.5,0,0,0,2.13,0l.61-.61a1.5,1.5,0,0,0,0-2.13Z" transform="translate(-150.26 -49.42)"/></svg>