<svg id="Layer_1" data-name="Layer 1" xmlns="http://www.w3.org/2000/svg" viewBox="0 0 99.6 100"><defs><style>.cls-1{fill:#fff;}</style></defs><g id="Group_367" data-name="Group 367"><path id="Path_200" data-name="Path 200" class="cls-1" d="M18.9,74.49A3,3,0,0,1,16,72.68a2.66,2.66,0,0,1-.22-1c0-1.6-.05-3.21,0-4.82a1.84,1.84,0,0,1,.55-1.11c3.09-3.11,6.21-6.2,9.32-9.29,2.53-2.52,5.08-5,7.6-7.57a.72.72,0,0,1,1-.16.43.43,0,0,1,.12.11q6,4.58,12,9.12c1,.73,1.93,1.46,2.87,2.22a.88.88,0,0,0,1.23,0Q55.72,56.08,61,52c1.41-1.08,2.84-2.16,4.24-3.26a.77.77,0,0,1,1.08,0l.1.12q7.1,7,14.23,14.07c.94.92,1.89,1.82,2.79,2.78a1.74,1.74,0,0,1,.42,1c0,1.61,0,3.22,0,4.83A3,3,0,0,1,81,74.43C78.38,74.47,29.19,74.49,18.9,74.49Z"/><path id="Path_201" data-name="Path 201" class="cls-1" d="M49.72,25.34H80.63a3.1,3.1,0,0,1,3,1.69,2.32,2.32,0,0,1-.62,3L68.81,40.9Q59.58,48,50.39,55a.78.78,0,0,1-1.1,0l0,0q-7.38-5.64-14.77-11.25L16.25,29.93a1.39,1.39,0,0,1-.58-1.17,2.84,2.84,0,0,1,1.65-3,4.32,4.32,0,0,1,1.78-.32c5.88,0,11.76,0,17.63,0h13v-.09"/><path id="Path_202" data-name="Path 202" class="cls-1" d="M83.92,47q0,5.68,0,11.37a2.44,2.44,0,0,1-.23.69,2,2,0,0,1-.49-.27q-5.7-5.62-11.38-11.27l-1.57-1.54c-.44-.44-.44-.62.06-1,2.23-1.71,4.46-3.43,6.7-5.13,2.06-1.59,4.11-3.18,6.17-4.75.14-.11.45-.22.5-.16a.82.82,0,0,1,.22.56q0,5.74,0,11.5h0"/><path id="Path_203" data-name="Path 203" class="cls-1" d="M15.7,47.1V35.55a2.11,2.11,0,0,1,.18-.59,2.45,2.45,0,0,1,.56.23l7.28,5.54c1.89,1.44,3.77,2.89,5.67,4.32.49.37.27.66,0,1L26.4,49l-10,10a1.65,1.65,0,0,1-.44.26,1.94,1.94,0,0,1-.2-.63c0-3.83,0-7.66,0-11.48h0"/></g></svg>