<svg id="Layer_1" data-name="Layer 1" xmlns="http://www.w3.org/2000/svg" xmlns:xlink="http://www.w3.org/1999/xlink" viewBox="0 0 82 82"><defs><style>.cls-1{fill:url(#linear-gradient);}.cls-2{fill:#fff;}</style><linearGradient id="linear-gradient" x1="-511.14" y1="844.46" x2="-511.14" y2="845.46" gradientTransform="matrix(82, 0, 0, -82, 41955.35, 69329.2)" gradientUnits="userSpaceOnUse"><stop offset="0" stop-color="#e84141"/><stop offset="1" stop-color="#e94e2f"/></linearGradient></defs><path id="Rectangle_578" data-name="Rectangle 578" class="cls-1" d="M1,1H83V83H16A15,15,0,0,1,1,68H1V1Z" transform="translate(-1 -1)"/><g id="Group_483" data-name="Group 483"><path id="Path_84" data-name="Path 84" class="cls-2" d="M32,33.73C31.23,35.82,30,37.66,30.11,40c1.65-1.72,2.94-3.52,3-6a28.77,28.77,0,0,1,.75-6.4,8.69,8.69,0,0,1,2-4v1.37a10.25,10.25,0,0,0,.29,3.35,2.13,2.13,0,0,0,.78,1.26,1.23,1.23,0,0,0,1.67-.42,1.25,1.25,0,0,0,.16-.73,7.51,7.51,0,0,0-.34-1.76,11.09,11.09,0,0,1,3-10A13.39,13.39,0,0,1,44,14.36a13.38,13.38,0,0,0-.87,3,11.93,11.93,0,0,0,1.08,6.42,55.11,55.11,0,0,0,2.59,4.93,23.15,23.15,0,0,1,2.58,5.9l.09.18c.41-2.65.57-5.36,3.13-7a11.26,11.26,0,0,0-.52,1.89,10.49,10.49,0,0,0,.9,5.15c.58,1.55,1.33,3,2,4.53a33.3,33.3,0,0,1,2.81,7.89A14.83,14.83,0,0,1,58,51.05,16.4,16.4,0,0,1,44.71,66,16.37,16.37,0,0,1,25.65,53.47,21.57,21.57,0,0,1,25.84,43,16.63,16.63,0,0,1,31.64,34l.17-.14.2-.08m7.75,20.78h0v2.93a1.83,1.83,0,1,0,3.65.32,1.71,1.71,0,0,0,0-.32c0-1.84,0-3.68,0-5.52a1.56,1.56,0,0,1,.67-1.45,3.94,3.94,0,1,0-6-1.3,3.83,3.83,0,0,0,1.33,1.52.79.79,0,0,1,.41.77c0,1,0,2,0,3" transform="translate(-1 -1)"/></g></svg>