<svg id="Layer_1" data-name="Layer 1" xmlns="http://www.w3.org/2000/svg" viewBox="0 0 80.31 119.13"><defs><style>.cls-1{fill:#fff;}</style></defs><g id="Group_260" data-name="Group 260"><path id="Path_84" data-name="Path 84" class="cls-1" d="M25,48.75c-1.24,3.32-3.28,6.25-3,10,2.62-2.73,4.68-5.58,4.7-9.55A46.47,46.47,0,0,1,27.82,39a14,14,0,0,1,3.12-6.41v2.17a16.74,16.74,0,0,0,.46,5.32,3.34,3.34,0,0,0,1.24,2,1.92,1.92,0,0,0,2.9-1.82,12.7,12.7,0,0,0-.53-2.8,17.62,17.62,0,0,1,4.77-15.89A21.82,21.82,0,0,1,44,18a21,21,0,0,0-1.37,4.84A18.88,18.88,0,0,0,44.28,33a88.33,88.33,0,0,0,4.11,7.83,36.56,36.56,0,0,1,4.1,9.37,1.17,1.17,0,0,0,.15.27c.65-4.19.9-8.5,5-11.1a19.19,19.19,0,0,0-.83,3c-.38,2.88.44,5.55,1.43,8.19.93,2.45,2.12,4.8,3.2,7.19,1.84,4,3.68,8.1,4.46,12.52a23.43,23.43,0,0,1,.41,6,25.65,25.65,0,0,1-6.54,15.48A25.36,25.36,0,0,1,45.13,100,26,26,0,0,1,14.87,80.08a34.29,34.29,0,0,1,.3-16.57,26.5,26.5,0,0,1,9.2-14.41,3.11,3.11,0,0,1,.28-.23,2.08,2.08,0,0,1,.32-.12m12.3,33h0v4.66a2.91,2.91,0,1,0,5.79.53,4.68,4.68,0,0,0,0-.53c0-2.92,0-5.84,0-8.77a2.47,2.47,0,0,1,1.07-2.29,6.25,6.25,0,1,0-9.61-2.06,6.16,6.16,0,0,0,2.12,2.41,1.25,1.25,0,0,1,.65,1.22c0,1.61,0,3.22,0,4.83"/></g></svg>