<svg xmlns="http://www.w3.org/2000/svg" xmlns:xlink="http://www.w3.org/1999/xlink" width="26.657" height="27.723" viewBox="0 0 26.657 27.723">
  <defs>
    <clipPath id="clip-path">
      <rect id="Rectangle_485" data-name="Rectangle 485" width="26.657" height="27.723" fill="#fff"/>
    </clipPath>
  </defs>
  <g id="Group_383" data-name="Group 383" clip-path="url(#clip-path)">
    <path id="Path_229" data-name="Path 229" d="M0,11.243A10.911,10.911,0,0,1,8.84.195,10.794,10.794,0,0,1,21.548,8.7,10.46,10.46,0,0,1,19.437,17.6c-.17.217-.141.321.037.5q3.311,3.315,6.608,6.644a1.7,1.7,0,1,1-2.416,2.4q-3.384-3.38-6.76-6.768a.421.421,0,0,0-.623-.083A10.838,10.838,0,0,1,.1,12.3c-.05-.387-.076-.777-.1-1.052m10.9,7.08a7.447,7.447,0,1,0-7.458-7.489A7.452,7.452,0,0,0,10.9,18.323" transform="translate(0 0.001)" fill="#fff"/>
  </g>
</svg>
