<svg id="Layer_1" data-name="Layer 1" xmlns="http://www.w3.org/2000/svg" viewBox="0 0 46.81 46.7"><defs><style>.cls-1{fill:#fff;}</style></defs><path class="cls-1" d="M.52,23.43C.46,11.8,9.18.55,23.25.44c13.74-.1,22.94,10.77,23,22.82a22.89,22.89,0,1,1-45.77.17Zm35.07-.18h0c0-2.27,0-4.54,0-6.82a5.14,5.14,0,0,0-5.29-5.33q-6.88,0-13.76,0a5.12,5.12,0,0,0-5.3,5.32q0,6.95,0,13.87a5.14,5.14,0,0,0,5.19,5.34q7,.1,14,0a5.2,5.2,0,0,0,5.2-5.56C35.56,27.8,35.59,25.53,35.59,23.25Z"/><path class="cls-1" d="M33.39,23.39c0,2.32,0,4.63,0,6.94a2.87,2.87,0,0,1-3.13,3.11H16.83c-2.36,0-3.46-1.12-3.46-3.49V16.54a3,3,0,0,1,3.33-3.3q6.71,0,13.42,0a3,3,0,0,1,3.29,3.33c0,2.28,0,4.55,0,6.82ZM23.45,17a6.39,6.39,0,1,0,6.32,6.4A6.39,6.39,0,0,0,23.45,17Zm6.77-1.81a1.53,1.53,0,0,0-1.51,1.53,1.46,1.46,0,0,0,1.44,1.47,1.5,1.5,0,0,0,1.57-1.46A1.56,1.56,0,0,0,30.22,15.17Z"/><path class="cls-1" d="M23.4,19.13a4.23,4.23,0,1,1-4.24,4.17A4.27,4.27,0,0,1,23.4,19.13Z"/></svg>