<svg id="Layer_1" data-name="Layer 1" xmlns="http://www.w3.org/2000/svg" viewBox="0 0 99.6 119.13"><defs><style>.cls-1{fill:#fcfdfe;}</style></defs><g id="Group_256" data-name="Group 256"><path id="Path_89" data-name="Path 89" class="cls-1" d="M47.51,26H75.93c3.46,0,4.9,1.41,4.9,4.92q0,18.35,0,36.7c0,.55.37,1.42-.5,1.59a3.33,3.33,0,0,1-2.21-.32c-2.35-1.14-2.1-3-2.1-5,0-7.28,0-14.56,0-21.84,0-1.26-.28-1.72-1.65-1.72q-27,.06-54,0c-1.27,0-1.55.4-1.55,1.6q.06,19.2,0,38.4c0,1.46.45,1.74,1.81,1.74,12.8,0,25.6,0,38.39,0,2.66,0,2.55.34,2.64,3,.09,2.3-1,1.92-2.35,1.92H19.4c-4.08,0-5.4-1.32-5.4-5.39V31.09C14,27.33,15.33,26,19.09,26H47.51m14.7,7.66c.19-1.66-.47-2.42-2.21-2.41s-2.2.75-2.22,2.29.53,2.4,2.29,2.37,2.34-.63,2.15-2.25m9.41-.16c-.19,1.55.32,2.43,2.14,2.41,1.56,0,2.32-.53,2.32-2.16s-.41-2.51-2.21-2.5c-1.56,0-2.41.53-2.25,2.25m-6.85.06c-.22,1.6.39,2.36,2.16,2.35s2.21-.66,2.21-2.23-.45-2.46-2.23-2.43c-1.62,0-2.32.67-2.14,2.31"/><path id="Path_90" data-name="Path 90" class="cls-1" d="M82.94,77.84a2.26,2.26,0,0,1,2.6,2.83c-.18.88-.93.75-1.48.85-.82.16-1.32.43-1.48,1.36s.35,1.27,1,1.54c1.31.54,1.2,1.28.54,2.33s-1.09,2.1-2.52,1a1.28,1.28,0,0,0-1.81,0l0,0a1.34,1.34,0,0,0-.4,1.84l.09.11c.82,1.55-.4,1.75-1.38,2.17s-1.92.62-2.26-.82c-.18-.75-.4-1.34-1.45-1.35S73,90.27,72.87,91c-.31,1.48-1.16,1.35-2.22.87s-2.23-.55-1.41-2.15A1.5,1.5,0,0,0,67,87.8c-1.22.91-1.71.14-2.27-.84s-1.15-1.91.4-2.53c.81-.33,1-.83.94-1.75s-.76-1.07-1.4-1.11c-2-.14-1.32-1.5-1.23-2.59.11-1.42.94-1.6,2.09-1.19A1.07,1.07,0,0,0,67,77.3l.06-.13c.4-.68.56-1.21-.12-1.78-1.17-1-.91-1.74.23-2.65s1.85-1.28,2.69.15c.43.73,1,.71,1.77.45A1.14,1.14,0,0,0,72.41,72a.19.19,0,0,0,0-.07c-.24-1.65.68-1.81,2-1.83s2.07.3,1.84,1.77a1.24,1.24,0,0,0,.89,1.52l.08,0c.69.23,1.23.22,1.62-.44.9-1.54,1.75-1,2.84-.12s1.15,1.67.14,2.58c-.65.58-.54,1.11-.1,1.79s.63.95,1.22.66m-8.58,0a3.47,3.47,0,0,0-3.45,3.46,3.57,3.57,0,0,0,3.53,3.41,3.44,3.44,0,0,0,3.3-3.4,3.34,3.34,0,0,0-3.21-3.47h-.17"/><path id="Path_91" data-name="Path 91" class="cls-1" d="M53.11,47.48c-.08.29-.18.66-.29,1L46,69.53a3.74,3.74,0,0,1-.55,1.18,2.05,2.05,0,0,1-3.66-1.22A5.53,5.53,0,0,1,42.09,68q3.3-10.35,6.64-20.7a3.56,3.56,0,0,1,.56-1.18,2,2,0,0,1,2.32-.73,2.25,2.25,0,0,1,1.5,2.06"/><path id="Path_92" data-name="Path 92" class="cls-1" d="M60.62,58.45c-2.21-1-4.11-1.94-6-2.8-1.35-.62-2.21-1.5-1.65-3.08.47-1.31,1.76-1.58,3.49-.79,3.18,1.46,6.34,3,9.53,4.42a2.44,2.44,0,0,1,1.73,2.23A2.39,2.39,0,0,1,66,60.67c-3.3,1.5-6.58,3-9.87,4.58-1.32.62-2.54.54-3.16-.9s.09-2.38,1.43-3c2-.89,3.92-1.84,6.22-2.92"/><path id="Path_93" data-name="Path 93" class="cls-1" d="M34.22,58.46c2.35,1.1,4.26,2,6.2,2.9,1.35.61,2,1.59,1.42,3s-1.84,1.5-3.15.9l-10-4.65a2.28,2.28,0,0,1,0-4.3l10.2-4.73c1.29-.6,2.4-.36,3,1a2.07,2.07,0,0,1-.91,2.77l-.34.13c-2,.94-4,1.9-6.37,3"/></g></svg>