<svg id="Layer_1" data-name="Layer 1" xmlns="http://www.w3.org/2000/svg" xmlns:xlink="http://www.w3.org/1999/xlink" viewBox="0 0 82 82"><defs><style>.cls-1{fill:none;}.cls-2{fill:url(#linear-gradient);}.cls-3{clip-path:url(#clip-path);}.cls-4{fill:#fff;}</style><linearGradient id="linear-gradient" x1="-511.14" y1="844.46" x2="-511.14" y2="845.46" gradientTransform="matrix(82, 0, 0, -82, 41955.35, 69329.2)" gradientUnits="userSpaceOnUse"><stop offset="0" stop-color="#523c90"/><stop offset="1" stop-color="#723d90"/></linearGradient><clipPath id="clip-path" transform="translate(-1 -1)"><rect class="cls-1" x="20.77" y="22.8" width="45.33" height="41.92"/></clipPath></defs><path id="Rectangle_389" data-name="Rectangle 389" class="cls-2" d="M1,1H83V83H16A15,15,0,0,1,1,68H1V1Z" transform="translate(-1 -1)"/><g id="Group_349" data-name="Group 349"><g class="cls-3"><g id="Group_256" data-name="Group 256"><path id="Path_89" data-name="Path 89" class="cls-4" d="M42,22.8H60c2.19,0,3.1.9,3.1,3.11q0,11.62,0,23.24c0,.35.23.9-.32,1a2.13,2.13,0,0,1-1.4-.2C59.88,49.23,60,48,60,46.8c0-4.61,0-9.22,0-13.83,0-.8-.18-1.09-1.05-1.09q-17.1,0-34.2,0c-.81,0-1,.26-1,1q0,12.15,0,24.31c0,.92.28,1.1,1.14,1.1,8.1,0,16.21,0,24.31,0,1.69,0,1.62.22,1.68,1.87,0,1.45-.67,1.21-1.5,1.21H24.19c-2.59,0-3.42-.83-3.42-3.41V26c0-2.38.84-3.22,3.22-3.22H42m9.3,4.85c.13-1-.3-1.54-1.4-1.53s-1.39.48-1.4,1.45.34,1.52,1.45,1.5,1.48-.4,1.36-1.43m6-.1c-.12,1,.2,1.54,1.35,1.53,1,0,1.48-.33,1.48-1.37s-.26-1.59-1.4-1.58c-1,0-1.53.34-1.43,1.42m-4.34,0c-.14,1,.25,1.5,1.37,1.5s1.4-.42,1.4-1.42-.29-1.56-1.42-1.54-1.47.43-1.36,1.46" transform="translate(-1 -1)"/><path id="Path_90" data-name="Path 90" class="cls-4" d="M64.42,55.62a1.42,1.42,0,0,1,1.67,1.12,1.26,1.26,0,0,1,0,.67c-.11.56-.58.48-.93.54-.52.1-.83.27-.94.87s.22.8.63,1c.84.34.77.81.34,1.47s-.68,1.33-1.59.63a.8.8,0,0,0-1.14,0h0a.84.84,0,0,0-.25,1.16l.05.07c.53,1-.24,1.11-.87,1.38s-1.21.39-1.43-.52c-.12-.48-.25-.85-.92-.86s-.85.36-1,.83c-.2.94-.73.86-1.41.55s-1.41-.34-.89-1.36a.93.93,0,0,0-.29-1.31,1,1,0,0,0-1.14.09c-.78.58-1.08.09-1.44-.53s-.73-1.21.25-1.6a.92.92,0,0,0,.6-1.11c-.06-.65-.48-.68-.89-.7-1.27-.09-.83-1-.78-1.64.07-.9.6-1,1.33-.75a.69.69,0,0,0,.92-.31l0-.08c.25-.44.36-.77-.07-1.13-.75-.63-.58-1.1.14-1.68s1.18-.81,1.7.1c.27.46.65.44,1.12.28a.71.71,0,0,0,.53-.87.43.43,0,0,1,0,0c-.16-1,.43-1.14,1.27-1.15s1.31.19,1.17,1.12a.79.79,0,0,0,.56,1h.06c.43.15.78.14,1-.28.57-1,1.11-.62,1.8-.07s.73,1,.09,1.63c-.41.36-.34.7-.07,1.13s.4.6.78.42M59,55.6a2.21,2.21,0,0,0-2.18,2.19A2.25,2.25,0,0,0,59,60a2.17,2.17,0,0,0,2.09-2.15,2.11,2.11,0,0,0-2-2.2H59" transform="translate(-1 -1)"/><path id="Path_91" data-name="Path 91" class="cls-4" d="M45.53,36.4c-.05.18-.11.41-.18.64L41.06,50.36a2.4,2.4,0,0,1-.35.74,1.3,1.3,0,0,1-2.32-.76,3.25,3.25,0,0,1,.17-.93q2.09-6.55,4.19-13.1a2.6,2.6,0,0,1,.36-.75,1.24,1.24,0,0,1,1.47-.46,1.42,1.42,0,0,1,1,1.3" transform="translate(-1 -1)"/><path id="Path_92" data-name="Path 92" class="cls-4" d="M50.28,43.34c-1.4-.65-2.6-1.22-3.81-1.77-.86-.39-1.4-1-1-2,.3-.83,1.11-1,2.2-.5,2,.93,4,1.88,6,2.8a1.55,1.55,0,0,1,1.1,1.41,1.52,1.52,0,0,1-1.07,1.43c-2.09,1-4.17,1.93-6.25,2.9-.83.39-1.61.34-2-.57s.06-1.51.91-1.89c1.25-.57,2.48-1.17,3.93-1.85" transform="translate(-1 -1)"/><path id="Path_93" data-name="Path 93" class="cls-4" d="M33.57,43.36c1.49.7,2.7,1.28,3.93,1.83.86.39,1.27,1,.9,1.89s-1.17,1-2,.57l-6.35-2.94a1.45,1.45,0,0,1,0-2.73l6.45-3a1.25,1.25,0,0,1,1.73.33,1.59,1.59,0,0,1,.15.29,1.31,1.31,0,0,1-.57,1.75.85.85,0,0,1-.22.09l-4,1.91" transform="translate(-1 -1)"/></g></g></g></svg>