<svg id="Layer_1" data-name="Layer 1" xmlns="http://www.w3.org/2000/svg" viewBox="0 0 46.81 46.7"><defs><style>.cls-1{fill:#fff;}</style></defs><path class="cls-1" d="M23.37,46.2a22.88,22.88,0,1,1,22.94-23A22.87,22.87,0,0,1,23.37,46.2ZM20.64,19.85v14h4c0-1.14,0-2.2,0-3.26,0-1.7,0-3.41.17-5.09s1-2.15,2.57-2.11a2,2,0,0,1,2.14,2.17c.13,1.47.1,2.95.12,4.42,0,1.28,0,2.56,0,3.89H34c0-1.12,0-2.17,0-3.22-.06-2.38,0-4.78-.24-7.14a3.62,3.62,0,0,0-2.79-3.38c-2.28-.56-4.5-.56-6.34,1.4l-.11-1.64Zm-7.74,0v14h4.82v-14Zm4.9-4.55a2.51,2.51,0,0,0-2.39-2.54,2.57,2.57,0,0,0-2.58,2.49,2.54,2.54,0,0,0,2.47,2.48A2.49,2.49,0,0,0,17.8,15.3Z"/></svg>