<svg id="Layer_1" data-name="Layer 1" xmlns="http://www.w3.org/2000/svg" xmlns:xlink="http://www.w3.org/1999/xlink" viewBox="0 0 99.6 100"><defs><style>.cls-1{fill:none;}.cls-2{clip-path:url(#clip-path);}.cls-3{fill:#fff;}</style><clipPath id="clip-path"><rect class="cls-1" x="24.44" y="13.81" width="50.72" height="72.37"/></clipPath></defs><g id="Group_366" data-name="Group 366"><g class="cls-2"><g id="Group_365" data-name="Group 365"><path id="Path_199" data-name="Path 199" class="cls-3" d="M49.7,86.19c-2.75-3.88-5.45-7.58-8-11.36A166.59,166.59,0,0,1,28.6,52.91a39,39,0,0,1-3.91-11.1,23.39,23.39,0,0,1,4.15-16.9A25.4,25.4,0,0,1,74.91,35.34c.74,4.63-.27,8.95-2,13.19A110.53,110.53,0,0,1,62.55,67.78c-3.93,5.93-8.08,11.72-12.14,17.57-.16.23-.36.43-.71.84M49.85,27A12.15,12.15,0,1,0,50,27h-.13"/></g></g></g></svg>