<svg id="Layer_1" data-name="Layer 1" xmlns="http://www.w3.org/2000/svg" viewBox="0 0 283.31 50.54"><defs><style>.cls-1{fill:none;}.cls-2{fill:#fff;}</style></defs><g id="Group_275" data-name="Group 275"><rect id="Rectangle_250" data-name="Rectangle 250" class="cls-1" width="283.23" height="50.54"/><path id="Path_32" data-name="Path 32" class="cls-2" d="M29.25,20.37l4,11.4h-9ZM23.06,3.49,1.75,52.3H15.31l5.21-12.06H36.29l4.5,12.06h13L36.29,3.49Z" transform="translate(-1.75 -2.75)"/><path id="Path_33" data-name="Path 33" class="cls-2" d="M79.83,15.41H95V3.49H52.71V15.41H67.9v37H79.82Z" transform="translate(-1.75 -2.75)"/><path id="Path_34" data-name="Path 34" class="cls-2" d="M127.4,15.41h15.19V3.49h-42.3V15.41h15.18v37H127.4Z" transform="translate(-1.75 -2.75)"/><path id="Path_35" data-name="Path 35" class="cls-2" d="M175.5,15.54v-12H147.8V52.3h27.7V40.24H159.86v-8.8H175.5v-12H159.86V15.54Z" transform="translate(-1.75 -2.75)"/><path id="Path_36" data-name="Path 36" class="cls-2" d="M227.25,38.55c1-2.28.45-9.9.45-13H206.26V37.83h6.13a12.84,12.84,0,0,1-7.23,2.22c-16.17,0-16.17-24.5,0-24.5a12.31,12.31,0,0,1,11.47,7.69L228,18.87A24.43,24.43,0,0,0,205.16,3.36c-32.13,0-32.13,48.94,0,48.94a24.86,24.86,0,0,0,22.09-13.75" transform="translate(-1.75 -2.75)"/><path id="Path_37" data-name="Path 37" class="cls-2" d="M246.6,52.3l5.22-12.06h15.77l4.5,12.06h13L267.59,3.49H254.36L233.05,52.3Zm8.93-20.53,5-11.4,4,11.4Z" transform="translate(-1.75 -2.75)"/></g></svg>