<svg id="Layer_1" data-name="Layer 1" xmlns="http://www.w3.org/2000/svg" xmlns:xlink="http://www.w3.org/1999/xlink" viewBox="0 0 283.31 78.86"><defs><style>.cls-1{fill:none;}.cls-2{fill:#fff;}.cls-3{clip-path:url(#clip-path);}.cls-4{fill:#75787b;}.cls-5{fill:#f8ac13;}</style><clipPath id="clip-path" transform="translate(-1.75 -2.75)"><rect class="cls-1" x="1.75" y="2.75" width="283.31" height="78.85"/></clipPath></defs><g id="Group_275" data-name="Group 275"><rect id="Rectangle_250" data-name="Rectangle 250" class="cls-1" width="283.23" height="50.54"/><path id="Path_32" data-name="Path 32" class="cls-2" d="M29.25,20.37l4,11.4h-9ZM23.06,3.49,1.75,52.3H15.31l5.21-12.06H36.29l4.5,12.06h13L36.29,3.49Z" transform="translate(-1.75 -2.75)"/><path id="Path_33" data-name="Path 33" class="cls-2" d="M79.83,15.41H95V3.49H52.71V15.41H67.9v37H79.82Z" transform="translate(-1.75 -2.75)"/><path id="Path_34" data-name="Path 34" class="cls-2" d="M127.4,15.41h15.19V3.49h-42.3V15.41h15.18v37H127.4Z" transform="translate(-1.75 -2.75)"/><path id="Path_35" data-name="Path 35" class="cls-2" d="M175.5,15.54v-12H147.8V52.3h27.7V40.24H159.86v-8.8H175.5v-12H159.86V15.54Z" transform="translate(-1.75 -2.75)"/><path id="Path_36" data-name="Path 36" class="cls-2" d="M227.25,38.55c1-2.28.45-9.9.45-13H206.26V37.83h6.13a12.84,12.84,0,0,1-7.23,2.22c-16.17,0-16.17-24.5,0-24.5a12.31,12.31,0,0,1,11.47,7.69L228,18.87A24.43,24.43,0,0,0,205.16,3.36c-32.13,0-32.13,48.94,0,48.94a24.86,24.86,0,0,0,22.09-13.75" transform="translate(-1.75 -2.75)"/><path id="Path_37" data-name="Path 37" class="cls-2" d="M246.6,52.3l5.22-12.06h15.77l4.5,12.06h13L267.59,3.49H254.36L233.05,52.3Zm8.93-20.53,5-11.4,4,11.4Z" transform="translate(-1.75 -2.75)"/><g id="Group_243" data-name="Group 243"><g class="cls-3"><g id="Group_242" data-name="Group 242"><path id="Path_38" data-name="Path 38" class="cls-4" d="M10.74,31.71" transform="translate(-1.75 -2.75)"/><path id="Path_39" data-name="Path 39" class="cls-5" d="M5.25,77.13l-3.39-7H3.74l1.32,3q.71,1.69,1.05,2.46h.07l.41-.93q.54-1.23.66-1.53l1.32-3h1.82L7,77.13V81.4H5.25Z" transform="translate(-1.75 -2.75)"/><path id="Path_40" data-name="Path 40" class="cls-5" d="M14.17,80.89a4.73,4.73,0,0,1-1.73-2,7.44,7.44,0,0,1-.62-3.12,7.35,7.35,0,0,1,.62-3.1,4.66,4.66,0,0,1,1.73-2,5.08,5.08,0,0,1,5.11,0,4.7,4.7,0,0,1,1.72,2,7.05,7.05,0,0,1,.62,3.1A7.14,7.14,0,0,1,21,78.84a4.65,4.65,0,0,1-1.72,2,4.94,4.94,0,0,1-5.11,0m4.19-1.35A3.46,3.46,0,0,0,19.44,78a6.61,6.61,0,0,0,.38-2.3A5.17,5.17,0,0,0,19,72.59a2.79,2.79,0,0,0-3.9-.6,3.1,3.1,0,0,0-.6.6,5.23,5.23,0,0,0-.84,3.12A6.39,6.39,0,0,0,14,78a3.38,3.38,0,0,0,1.08,1.53,2.78,2.78,0,0,0,3.27,0" transform="translate(-1.75 -2.75)"/><path id="Path_41" data-name="Path 41" class="cls-5" d="M25.88,80.4a5.55,5.55,0,0,1-1.1-3.82V70.13h1.76v6.55a4.1,4.1,0,0,0,.64,2.6,2.15,2.15,0,0,0,1.78.78c1.65,0,2.48-1.13,2.48-3.38V70.13h1.68v6.44A5.53,5.53,0,0,1,32,80.4a4.54,4.54,0,0,1-6.13,0" transform="translate(-1.75 -2.75)"/><path id="Path_42" data-name="Path 42" class="cls-5" d="M43.06,81.39l-2.53-4.55H38.66v4.55H36.9V70.13h3.69a5,5,0,0,1,3,.77,2.83,2.83,0,0,1,1.08,2.5,3.22,3.22,0,0,1-.63,2,3.36,3.36,0,0,1-1.72,1.14L45,81.39Zm-4.4-6h1.72a3.06,3.06,0,0,0,1.88-.51,1.81,1.81,0,0,0,.65-1.52A1.63,1.63,0,0,0,42.28,72a3.5,3.5,0,0,0-1.9-.43H38.66Z" transform="translate(-1.75 -2.75)"/><path id="Path_43" data-name="Path 43" class="cls-5" d="M52.1,70.13h1.81l3.75,6.66,1.18,2.37h.07c0-.37,0-.63-.07-.78s0-.51-.08-1.15-.07-1.24-.07-1.8v-5.3h1.67V81.39H58.55L54.8,74.72l-1.18-2.36h-.07l.07.86c0,.14,0,.51.08,1.12s.07,1.17.07,1.7v5.35H52.1Z" transform="translate(-1.75 -2.75)"/><path id="Path_44" data-name="Path 44" class="cls-5" d="M64.19,70.13h6.66v1.48H66v3.16h4.14v1.48H66v3.67H71v1.47H64.19Z" transform="translate(-1.75 -2.75)"/><path id="Path_45" data-name="Path 45" class="cls-5" d="M73.1,70.13h1.8L76,76c.27,1.61.47,2.81.6,3.61h.07c.21-1.09.47-2.29.75-3.61l1.46-5.88H80.4L81.86,76l.78,3.61h.07L83.29,76l1.07-5.88H86L83.81,81.39H81.66L80.13,75.1c-.21-1-.38-1.82-.52-2.58h-.07c-.17.91-.32,1.62-.44,2.15a3,3,0,0,1-.09.43l-1.5,6.29H75.39Z" transform="translate(-1.75 -2.75)"/><path id="Path_46" data-name="Path 46" class="cls-5" d="M99.23,81.39,96.7,76.84H94.83v4.55H93.08V70.13h3.67a5.05,5.05,0,0,1,3,.77,2.83,2.83,0,0,1,1.08,2.5,3.22,3.22,0,0,1-.63,2,3.36,3.36,0,0,1-1.72,1.14l2.75,4.8Zm-4.4-6h1.72a3,3,0,0,0,1.88-.51,1.81,1.81,0,0,0,.65-1.52A1.63,1.63,0,0,0,98.45,72a3.5,3.5,0,0,0-1.9-.43H94.83Z" transform="translate(-1.75 -2.75)"/><path id="Path_47" data-name="Path 47" class="cls-5" d="M104,70.13h6.65v1.48h-4.9v3.16h4.15v1.48h-4.15v3.67h5.07v1.47H104Z" transform="translate(-1.75 -2.75)"/><path id="Path_48" data-name="Path 48" class="cls-5" d="M115.82,80.91a4.68,4.68,0,0,1-1.79-2,7,7,0,0,1-.65-3.12,6.71,6.71,0,0,1,.67-3.11,5,5,0,0,1,1.83-2,4.93,4.93,0,0,1,2.59-.71,4,4,0,0,1,1.8.4,4.6,4.6,0,0,1,1.38,1l-.94,1.14a3,3,0,0,0-2.2-1,3,3,0,0,0-1.73.53,3.4,3.4,0,0,0-1.17,1.48,5.72,5.72,0,0,0-.42,2.27,5.13,5.13,0,0,0,.89,3.18,2.84,2.84,0,0,0,2.38,1.16,3.26,3.26,0,0,0,2.49-1.2l1,1.1a4.45,4.45,0,0,1-3.51,1.63,4.81,4.81,0,0,1-2.56-.69" transform="translate(-1.75 -2.75)"/><path id="Path_49" data-name="Path 49" class="cls-5" d="M130.9,81.39l-2.53-4.55H126.5v4.55h-1.75V70.13h3.67a5.05,5.05,0,0,1,3,.77,2.83,2.83,0,0,1,1.08,2.5,3.22,3.22,0,0,1-.63,2,3.36,3.36,0,0,1-1.72,1.14l2.75,4.8Zm-4.4-6h1.72a3,3,0,0,0,1.88-.51,1.81,1.81,0,0,0,.65-1.52,1.63,1.63,0,0,0-.63-1.43,3.5,3.5,0,0,0-1.9-.43H126.5Z" transform="translate(-1.75 -2.75)"/><path id="Path_50" data-name="Path 50" class="cls-5" d="M136.68,80.4a5.5,5.5,0,0,1-1.1-3.82V70.13h1.75v6.55a4.11,4.11,0,0,0,.65,2.6,2.15,2.15,0,0,0,1.78.78c1.65,0,2.48-1.13,2.48-3.38V70.13h1.68v6.44a5.53,5.53,0,0,1-1.1,3.83,4.55,4.55,0,0,1-6.14,0" transform="translate(-1.75 -2.75)"/><rect id="Rectangle_251" data-name="Rectangle 251" class="cls-5" x="145.95" y="67.38" width="1.75" height="11.26"/><path id="Path_51" data-name="Path 51" class="cls-5" d="M155.59,71.61h-3.32V70.13h8.39v1.48h-3.32v9.78h-1.75Z" transform="translate(-1.75 -2.75)"/><path id="Path_52" data-name="Path 52" class="cls-5" d="M163.48,70.13h2l2.06,5.73.42,1.25.34,1h.07c.18-.55.3-.91.34-1.07l.4-1.2,2-5.72h2V81.4h-1.61V75.79c0-.62.06-1.64.18-3.07l0-.4h-.07l-.89,2.6-2,5.38h-1.08l-2-5.38-.9-2.6h-.06l0,.4c.13,1.43.19,2.45.19,3.07V81.4h-1.58Z" transform="translate(-1.75 -2.75)"/><path id="Path_53" data-name="Path 53" class="cls-5" d="M177,70.13h6.65v1.48h-4.9v3.16h4.15v1.48h-4.15v3.67h5.08v1.47H177Z" transform="translate(-1.75 -2.75)"/><path id="Path_54" data-name="Path 54" class="cls-5" d="M187.07,70.13h1.81l3.74,6.66,1.19,2.37h.07c0-.37,0-.63-.07-.78l-.09-1.15c0-.64-.07-1.24-.07-1.8v-5.3h1.67V81.39h-1.8l-3.75-6.67-1.19-2.36h-.07l.07.86c0,.14,0,.51.09,1.12s.07,1.17.07,1.7v5.35h-1.67Z" transform="translate(-1.75 -2.75)"/><path id="Path_55" data-name="Path 55" class="cls-5" d="M201.46,71.61h-3.32V70.13h8.39v1.48h-3.31v9.78h-1.76Z" transform="translate(-1.75 -2.75)"/><path id="Path_56" data-name="Path 56" class="cls-5" d="M213.67,70.13h3.4q4.31,0,4.3,3.4a3.18,3.18,0,0,1-1.16,2.68,5,5,0,0,1-3.07.9h-1.72v4.28h-1.75ZM217,75.7a3.12,3.12,0,0,0,2-.53,2,2,0,0,0,.65-1.63A1.72,1.72,0,0,0,219,72a3.73,3.73,0,0,0-2.07-.46h-1.48V75.7Z" transform="translate(-1.75 -2.75)"/><path id="Path_57" data-name="Path 57" class="cls-5" d="M228.77,78.18h-3.92l-1,3.21h-1.79l3.73-11.26h2l3.73,11.26h-1.85Zm-.42-1.39-.44-1.52c-.17-.54-.35-1.16-.55-1.87s-.34-1.23-.43-1.55a2,2,0,0,0-.09-.33h-.07q-.56,2.12-1.05,3.75l-.44,1.52Z" transform="translate(-1.75 -2.75)"/><path id="Path_58" data-name="Path 58" class="cls-5" d="M240.1,81.39l-2.53-4.55H235.7v4.55h-1.76V70.13h3.68a5,5,0,0,1,3,.77,2.84,2.84,0,0,1,1.09,2.5,3.22,3.22,0,0,1-.63,2,3.39,3.39,0,0,1-1.73,1.14l2.75,4.8Zm-4.4-6h1.71a3,3,0,0,0,1.88-.51,1.81,1.81,0,0,0,.65-1.52,1.63,1.63,0,0,0-.63-1.43,3.5,3.5,0,0,0-1.9-.43h-1.72Z" transform="translate(-1.75 -2.75)"/><path id="Path_59" data-name="Path 59" class="cls-5" d="M246.87,71.61h-3.32V70.13h8.39v1.48h-3.32v9.78h-1.75Z" transform="translate(-1.75 -2.75)"/><path id="Path_60" data-name="Path 60" class="cls-5" d="M254.76,70.13h1.81l3.74,6.66,1.19,2.37h.07c0-.37-.05-.63-.07-.78l-.09-1.15q-.06-1-.06-1.8v-5.3H263V81.39h-1.8l-3.75-6.67-1.19-2.35h-.06l.06.86c0,.13,0,.51.09,1.11s.07,1.18.07,1.7v5.35h-1.67Z" transform="translate(-1.75 -2.75)"/><path id="Path_61" data-name="Path 61" class="cls-5" d="M266.85,70.13h6.65v1.48h-4.9v3.16h4.15v1.48H268.6v3.67h5.07v1.47h-6.82Z" transform="translate(-1.75 -2.75)"/><path id="Path_62" data-name="Path 62" class="cls-5" d="M283.05,81.39l-2.53-4.55h-1.88v4.55h-1.75V70.13h3.68a5,5,0,0,1,3,.77,2.84,2.84,0,0,1,1.09,2.5,3.22,3.22,0,0,1-.63,2,3.39,3.39,0,0,1-1.73,1.14l2.75,4.8Zm-4.4-6h1.71a3.09,3.09,0,0,0,1.89-.51,1.83,1.83,0,0,0,.64-1.52,1.6,1.6,0,0,0-.63-1.43,3.46,3.46,0,0,0-1.9-.43h-1.71Z" transform="translate(-1.75 -2.75)"/></g></g></g></g></svg>