<svg id="Layer_1" data-name="Layer 1" xmlns="http://www.w3.org/2000/svg" xmlns:xlink="http://www.w3.org/1999/xlink" viewBox="0 0 82 82"><defs><style>.cls-1{fill:none;}.cls-2{fill:url(#linear-gradient);}.cls-3{clip-path:url(#clip-path);}.cls-4{fill:#fff;}</style><linearGradient id="linear-gradient" x1="-511.14" y1="844.46" x2="-511.14" y2="845.46" gradientTransform="matrix(82, 0, 0, -82, 41955.35, 69329.2)" gradientUnits="userSpaceOnUse"><stop offset="0" stop-color="#3460aa"/><stop offset="1" stop-color="#50a1d9"/></linearGradient><clipPath id="clip-path" transform="translate(-1 -1)"><rect class="cls-1" x="17.53" y="17.07" width="48.93" height="49.85"/></clipPath></defs><path id="Rectangle_392" data-name="Rectangle 392" class="cls-2" d="M1,1H83V83H16A15,15,0,0,1,1,68H1V1Z" transform="translate(-1 -1)"/><g id="Group_482" data-name="Group 482"><g class="cls-3"><g id="Group_252" data-name="Group 252"><path id="Path_86" data-name="Path 86" class="cls-4" d="M23.21,59.35c-1.05-1.8-2-3.52-3-5.19a2.05,2.05,0,0,0-1-.79,2.32,2.32,0,0,1-1.55-2.85A2.29,2.29,0,0,1,20.27,49,2.34,2.34,0,0,1,22,51.67a2.62,2.62,0,0,0,.23,1.44c.53,1.07,1.17,2.09,1.77,3.12a1.73,1.73,0,0,0,.23.24c1.63-.67,3.32-1.33,5-2a1.11,1.11,0,0,1,1.4.22,16.68,16.68,0,0,0,6.07,3.52,1.07,1.07,0,0,1,.84,1c.22,1.78.49,3.55.74,5.4h3.63V55.67c-.84-.12-1.68-.21-2.5-.37A13.51,13.51,0,0,1,32.83,52a3.44,3.44,0,0,0-1.44-.69,2.33,2.33,0,0,1-1.87-2.45,2.28,2.28,0,0,1,2.4-2.05A2.13,2.13,0,0,1,34,49v0a1.76,1.76,0,0,0,.87,1.74,11.27,11.27,0,0,0,7,2.55V50l-1-.19a7.7,7.7,0,0,1-6.6-5.87c-.2-.68-.47-.88-1.14-.87-2.39,0-4.79,0-7.18,0-.31,0-.61,0-.95.06,0,.76,0,1.3.77,1.7a2.16,2.16,0,0,1,.88,2.93l0,.09a2.25,2.25,0,0,1-3,.93,2.31,2.31,0,0,1-1-3,4.21,4.21,0,0,0,.23-1.41c0-1.65,0-3.3,0-4.94a1.43,1.43,0,0,0-.61-1.42c-1.58-1.17-3.11-2.4-4.74-3.66C18.77,32.23,20,30.12,21.2,28a3.37,3.37,0,0,0,.36-1.65,2.34,2.34,0,0,1,1.94-2.5,2.27,2.27,0,0,1,.82,4.46,2.15,2.15,0,0,0-1.08.82c-.95,1.52-1.81,3.09-2.74,4.7,1.42,1.11,2.78,2.21,4.2,3.25a1.3,1.3,0,0,1,.6,1.58,16.43,16.43,0,0,0-.32,2.2h6.74c.73,0,1.62.22,2.16-.11s.52-1.23.8-1.86A7.79,7.79,0,0,1,41,34.08c.28,0,.56-.08.89-.13V30.62a11.1,11.1,0,0,0-8.44,4c-.15.17-.1.57-.06.85A2.27,2.27,0,1,1,29,36.59a2.33,2.33,0,0,1,1.62-2.81,2.4,2.4,0,0,0,1-.63,13.46,13.46,0,0,1,9.45-4.76c.48,0,.89-.05.88-.73,0-2.74,0-5.48,0-8.31H38.3c-.22,1.6-.48,3.2-.64,4.8A1.74,1.74,0,0,1,36.29,26a15.21,15.21,0,0,0-2.87,1.32,2.31,2.31,0,0,0-1.53,1.81,2.1,2.1,0,0,1-2.58,1.47,2.28,2.28,0,0,1-1.78-2.41,2.09,2.09,0,0,1,2.16-2h0a3.36,3.36,0,0,0,2.4-.72,11.93,11.93,0,0,1,2.25-1.15,1.67,1.67,0,0,0,1.23-1.7c.18-1.81.48-3.61.74-5.49H47.66a36.73,36.73,0,0,1,.52,3.77c.07,2,.6,3.42,2.75,4.06a17.16,17.16,0,0,1,3,1.81,1.57,1.57,0,0,0,1.2.16c1.9-.72,3.77-1.52,5.71-2.32l5.68,9.83C64.9,35.59,63.38,36.82,61.8,38a1.61,1.61,0,0,0-.69,1.59c.08,1.65,0,3.3,0,4.95a2,2,0,0,0,.56,1.29c1.51,1.26,3.09,2.44,4.74,3.72l-5.66,9.82c-1.9-.77-3.76-1.48-5.59-2.28a1.38,1.38,0,0,0-1.5.2c-1.41.91-2.92,1.67-4.34,2.57A2,2,0,0,0,48.51,61c-.3,1.66-.51,3.34-.69,5-.07.69-.28,1-1,1-3.2,0-6.41,0-9.61,0-.66,0-.93-.19-1-.87-.18-1.68-.46-3.34-.65-5a1.51,1.51,0,0,0-1-1.31c-1.49-.77-2.9-1.7-4.38-2.5a1.78,1.78,0,0,0-1.3-.16c-1.87.7-3.71,1.48-5.67,2.28M36.34,41.92a5.59,5.59,0,1,0,0-.12v.13" transform="translate(-1 -1)"/></g></g></g></svg>