<svg id="Layer_1" data-name="Layer 1" xmlns="http://www.w3.org/2000/svg" viewBox="0 0 100.92 119.13"><defs><style>.cls-1{fill:#fff;}</style></defs><g id="Group_252" data-name="Group 252"><path id="Path_86" data-name="Path 86" class="cls-1" d="M22.45,85c-1.55-2.69-3-5.24-4.51-7.74a3.08,3.08,0,0,0-1.49-1.17,3.4,3.4,0,0,1,1.63-6.6,3.5,3.5,0,0,1,2.62,4.06A4,4,0,0,0,21,75.71c.8,1.59,1.75,3.1,2.65,4.64a2.82,2.82,0,0,0,.33.36c2.45-1,5-2,7.44-3.06a1.69,1.69,0,0,1,2.1.33,24.71,24.71,0,0,0,9.05,5.24,1.62,1.62,0,0,1,1.25,1.55c.32,2.65.72,5.29,1.1,8h5.4V79.52c-1.25-.18-2.49-.32-3.72-.54a20.26,20.26,0,0,1-9.84-5,5.13,5.13,0,0,0-2.15-1,3.46,3.46,0,0,1-2.78-3.65,3.39,3.39,0,0,1,3.57-3,3.19,3.19,0,0,1,3.13,3.23v.06a2.63,2.63,0,0,0,1.3,2.58A16.73,16.73,0,0,0,50.28,76V71.07c-.43-.08-.92-.19-1.42-.27A11.51,11.51,0,0,1,39,62.05c-.3-1-.69-1.31-1.7-1.3-3.57.06-7.14,0-10.7,0-.46,0-.91.06-1.41.09-.06,1.14,0,2,1.14,2.54a3.22,3.22,0,0,1,1.33,4.36s-.05.09-.07.13a3.36,3.36,0,0,1-4.48,1.38,3.45,3.45,0,0,1-1.55-4.44,6.28,6.28,0,0,0,.33-2.1c0-2.45-.05-4.91.06-7.36a2.17,2.17,0,0,0-.9-2.12c-2.36-1.74-4.65-3.58-7.06-5.46,1.84-3.21,3.71-6.36,5.46-9.57A5.08,5.08,0,0,0,20,35.78a3.48,3.48,0,0,1,2.89-3.73,3.39,3.39,0,0,1,1.21,6.66,3.11,3.11,0,0,0-1.61,1.22c-1.41,2.26-2.7,4.6-4.09,7,2.12,1.65,4.16,3.3,6.26,4.84a1.91,1.91,0,0,1,.9,2.36,25.9,25.9,0,0,0-.47,3.28h8.78c.42,0,.84,0,1.26,0,1.1,0,2.42.32,3.23-.17s.76-1.83,1.19-2.76A11.57,11.57,0,0,1,49,47.35c.41-.05.82-.12,1.32-.2v-5a16.52,16.52,0,0,0-12.57,5.92c-.23.26-.16.85-.09,1.27a3.39,3.39,0,0,1-6.56,1.71,3.46,3.46,0,0,1,2.42-4.19A3.8,3.8,0,0,0,35.06,46a20.05,20.05,0,0,1,14.08-7.1c.72-.05,1.32-.07,1.31-1.08,0-4.09,0-8.17,0-12.39h-5.5c-.32,2.4-.71,4.77-.94,7.15a2.59,2.59,0,0,1-2,2.68,24,24,0,0,0-4.28,2,3.45,3.45,0,0,0-2.28,2.71c-.23,1.61-2.13,2.5-3.83,2.18a3.39,3.39,0,0,1-2.66-3.58c.14-1.68,1.58-3.25,3.22-3a5.06,5.06,0,0,0,3.59-1.07,17.33,17.33,0,0,1,3.35-1.71,2.47,2.47,0,0,0,1.82-2.53c.28-2.7.72-5.39,1.1-8.18H58.89a53.1,53.1,0,0,1,.78,5.62c.1,2.94.9,5.1,4.1,6.05,1.59.47,2.89,1.85,4.39,2.7A2.43,2.43,0,0,0,70,36.6c2.83-1.07,5.62-2.26,8.52-3.45L86.92,47.8c-2.33,1.81-4.6,3.63-7,5.36a2.37,2.37,0,0,0-1,2.37c.12,2.45,0,4.91.06,7.36a2.84,2.84,0,0,0,.83,1.92c2.25,1.89,4.6,3.64,7.07,5.56L78.46,85c-2.83-1.15-5.6-2.21-8.33-3.4a2,2,0,0,0-2.24.29c-2.1,1.36-4.35,2.5-6.47,3.83a2.87,2.87,0,0,0-1.26,1.68c-.45,2.47-.77,5-1,7.47-.11,1-.43,1.44-1.53,1.43q-7.17-.08-14.32,0c-1,0-1.39-.27-1.49-1.29-.26-2.5-.69-5-1-7.48a2.26,2.26,0,0,0-1.47-2C37.14,84.42,35,83,32.83,81.85a2.62,2.62,0,0,0-1.92-.23c-2.79,1-5.53,2.2-8.46,3.4M42,59a8.34,8.34,0,1,0,0-.18V59"/></g></svg>