<svg id="Layer_1" data-name="Layer 1" xmlns="http://www.w3.org/2000/svg" xmlns:xlink="http://www.w3.org/1999/xlink" viewBox="0 0 82 82"><defs><style>.cls-1{fill:none;}.cls-2{fill:url(#linear-gradient);}.cls-3{clip-path:url(#clip-path);}.cls-4{fill:#fff;}</style><linearGradient id="linear-gradient" x1="-511.14" y1="844.46" x2="-511.14" y2="845.46" gradientTransform="matrix(82, 0, 0, -82, 41955.35, 69329.2)" gradientUnits="userSpaceOnUse"><stop offset="0" stop-color="#158e56"/><stop offset="1" stop-color="#3caf6e"/></linearGradient><clipPath id="clip-path" transform="translate(-1 -1)"><rect class="cls-1" x="21.57" y="18.66" width="40.87" height="45.94"/></clipPath></defs><path id="Rectangle_387" data-name="Rectangle 387" class="cls-2" d="M1,1H83V83H16A15,15,0,0,1,1,68H1V1Z" transform="translate(-1 -1)"/><g id="Group_337" data-name="Group 337"><g class="cls-3"><g id="Group_254" data-name="Group 254"><path id="Path_87" data-name="Path 87" class="cls-4" d="M54.19,19.23c0,5.42.06,10.7,0,16,0,1.57.46,2,2,1.92s3.29,0,4.93,0c1.4-.06,1.74.27,1,1.58-3.37,5.71-6.69,11.46-10,17.2-1.58,2.71-3.14,5.43-4.84,8.4a5.06,5.06,0,0,1-.31-2.61c0-4.67,0-9.33,0-14,0-1.35-.39-1.79-1.73-1.71-1.85.1-3.7,0-5.56,0-.83,0-1.42-.1-.82-1.14Q46.26,32.09,53.7,19.35s.13,0,.49-.13" transform="translate(-1 -1)"/><path id="Path_88" data-name="Path 88" class="cls-4" d="M26.68,18.66c0,2.67.11,5.06,0,7.43-.1,1.62.49,2.06,2,1.88.88-.11,1.79,0,2.68,0,2.93-.08,2.76.71,2.74-2.91,0-1.64,0-3.3,0-4.94,0-1.31.38-1.38,1.39-.73,4.85,3.1,5,11.08.2,14.18A3.49,3.49,0,0,0,33.77,37c0,7.83,0,15.66-.09,23.49,0,2.66-1.21,4.07-3.49,4.12s-3.69-1.54-3.69-4.06q0-12.06.2-24.1a2.75,2.75,0,0,0-1.35-2.66c-5.5-3.75-5-11.73,1.33-15.12m3.59,42.7a1.23,1.23,0,0,0,1.31-1.14,1.61,1.61,0,0,0,0-.31,1.2,1.2,0,0,0-1.19-1.19h-.17c-.9,0-1.42.5-1.41,1.36a1.23,1.23,0,0,0,1.13,1.3,1.27,1.27,0,0,0,.34,0" transform="translate(-1 -1)"/></g></g></g></svg>