<svg id="Layer_1" data-name="Layer 1" xmlns="http://www.w3.org/2000/svg" viewBox="0 0 96.62 119.13"><defs><style>.cls-1{fill:#f9fcfd;}</style></defs><g id="Group_254" data-name="Group 254"><path id="Path_87" data-name="Path 87" class="cls-1" d="M68.78,21.94c0,9.12.1,18-.07,26.81,0,2.65.78,3.42,3.32,3.23,2.75-.21,5.53,0,8.29-.08,2.34-.1,2.92.45,1.61,2.65-5.65,9.6-11.22,19.25-16.81,28.89C62.48,88,59.87,92.56,57,97.54c-.81-1.74-.51-3.1-.52-4.39,0-7.83-.09-15.66.05-23.49,0-2.28-.64-3-2.9-2.89-3.1.18-6.22,0-9.33,0-1.4,0-2.4-.18-1.37-1.92L68,22.16c0-.07.21-.06.82-.22"/><path id="Path_88" data-name="Path 88" class="cls-1" d="M22.59,21c0,4.49.19,8.49-.07,12.47-.17,2.72.82,3.45,3.31,3.15,1.48-.18,3,0,4.5,0,4.92-.14,4.63,1.19,4.6-4.89,0-2.76,0-5.53-.07-8.3-.07-2.19.62-2.31,2.34-1.21,8.14,5.2,8.48,18.59.34,23.8-2.42,1.55-3,3.13-3,5.79.06,13.14-.08,26.29-.15,39.43,0,4.47-2,6.84-5.87,6.92-3.58.08-6.19-2.58-6.18-6.82q0-20.23.32-40.47a4.58,4.58,0,0,0-2.26-4.45C11.12,40.08,12,26.68,22.59,21m6,71.69a2.07,2.07,0,0,0,2.21-1.92,2.27,2.27,0,0,0,0-.52,2,2,0,0,0-2-2l-.27,0c-1.52.07-2.39.83-2.37,2.28a2,2,0,0,0,1.9,2.18,1.79,1.79,0,0,0,.56,0"/></g></svg>