<svg id="Layer_1" data-name="Layer 1" xmlns="http://www.w3.org/2000/svg" xmlns:xlink="http://www.w3.org/1999/xlink" viewBox="0 0 99.6 100"><defs><style>.cls-1{fill:none;}.cls-2{clip-path:url(#clip-path);}.cls-3{fill:#fff;}</style><clipPath id="clip-path"><rect class="cls-1" x="20.32" y="20.5" width="58.96" height="58.99"/></clipPath></defs><g id="Group_370" data-name="Group 370"><g class="cls-2"><g id="Group_369" data-name="Group 369"><path id="Path_204" data-name="Path 204" class="cls-3" d="M64.91,79.5a29.45,29.45,0,0,1-12.07-3.1A56.77,56.77,0,0,1,38.19,66.1c-5.2-4.95-10-10.23-13.48-16.58a32.13,32.13,0,0,1-4.34-13.39A15.56,15.56,0,0,1,28.11,21a3.89,3.89,0,0,1,2-.47c1.33.05,2.65.17,4,.35a2,2,0,0,1,1.7,1.44Q38,29,40.18,35.67a3.08,3.08,0,0,1-.71,3.14l-3.35,3.85a2.68,2.68,0,0,0-.3,3.38A43.31,43.31,0,0,0,53.75,64a2.69,2.69,0,0,0,3.38-.29c1.2-1.06,2.42-2.09,3.61-3.17a3.53,3.53,0,0,1,3.77-.81q6.4,2.11,12.8,4.2a2.17,2.17,0,0,1,1.67,2c.14,1.49.26,3,.3,4.47a2.65,2.65,0,0,1-.45,1.33,15.55,15.55,0,0,1-13.92,7.81"/></g></g></g></svg>