<svg id="Layer_1" data-name="Layer 1" xmlns="http://www.w3.org/2000/svg" viewBox="0 0 40 35"><g id="Group_317" data-name="Group 317"><path id="Path_84" data-name="Path 84" d="M14.23,13.52c-.48,1.26-1.25,2.37-1.16,3.79a5.17,5.17,0,0,0,1.79-3.64,17.93,17.93,0,0,1,.45-3.86A5.27,5.27,0,0,1,16.5,7.37v.82a6,6,0,0,0,.17,2,1.3,1.3,0,0,0,.47.76.73.73,0,0,0,1-.26.68.68,0,0,0,.1-.44A4.31,4.31,0,0,0,18,9.22a6.68,6.68,0,0,1,1.82-6,8.13,8.13,0,0,1,1.58-1.35,8.24,8.24,0,0,0-.52,1.84,7.18,7.18,0,0,0,.65,3.87,32.24,32.24,0,0,0,1.56,3,13.68,13.68,0,0,1,1.56,3.57l.06.1c.24-1.6.34-3.24,1.88-4.22a7.57,7.57,0,0,0-.31,1.13,6.3,6.3,0,0,0,.54,3.12c.35.94.8,1.83,1.21,2.74a19.74,19.74,0,0,1,1.7,4.76A9.08,9.08,0,0,1,29.93,24a9.69,9.69,0,0,1-2.49,5.88A9.57,9.57,0,0,1,21.89,33a9.86,9.86,0,0,1-11.5-7.56,13,13,0,0,1,.11-6.3A10.1,10.1,0,0,1,14,13.65l.1-.08.13-.05M18.9,26.06h0v1.77a1.11,1.11,0,0,0,2.2.21.74.74,0,0,0,0-.21c0-1.11,0-2.22,0-3.33a1,1,0,0,1,.4-.88,2.37,2.37,0,1,0-3.65-.78,2.32,2.32,0,0,0,.81.92.47.47,0,0,1,.24.46c0,.61,0,1.22,0,1.84"/></g></svg>