<svg id="Layer_1" data-name="Layer 1" xmlns="http://www.w3.org/2000/svg" viewBox="0 0 40 35"><g id="Group_314" data-name="Group 314"><path id="Path_165" data-name="Path 165" d="M27.73,21.4l1.2,1.2a1.32,1.32,0,0,1-.72.51c-.48.14-.94.31-1.47.48.22-.62.39-1.21.61-1.77.07-.17.26-.29.38-.42"/><path id="Path_166" data-name="Path 166" d="M25.43,26.38A1.12,1.12,0,0,1,24,24.9c.42-1.27.85-2.54,1.26-3.81a2.13,2.13,0,0,1,.54-.87l3.9-3.89a.57.57,0,0,0,.17-.43q0-3.44,0-6.88V8.73H25.19a1.13,1.13,0,0,1-1.25-1,1,1,0,0,1,0-.24V2.85H9.43a.84.84,0,0,0-.93.76.74.74,0,0,0,0,.21V31.18a.87.87,0,0,0,.74,1,.49.49,0,0,0,.24,0H28.83a.87.87,0,0,0,1-.73.61.61,0,0,0,0-.27V24.88l-.44.18-4,1.32m-15.21-15a1.09,1.09,0,0,1,1-1H25a1.11,1.11,0,0,1,1.16,1.05,1.12,1.12,0,0,1-.86,1.13,1.58,1.58,0,0,1-.38,0H11.45a1.59,1.59,0,0,1-.48-.07,1.07,1.07,0,0,1-.75-1.18m0,3.83a1.09,1.09,0,0,1,.88-.85,1.7,1.7,0,0,1,.39,0H21a1.77,1.77,0,0,1,.51.05,1.11,1.11,0,0,1,.74,1.37,1.1,1.1,0,0,1-1.08.79H11.36a1.11,1.11,0,0,1-1.15-1,.93.93,0,0,1,0-.29m0,3.92a1.13,1.13,0,0,1,1-.87H21a1.12,1.12,0,0,1,1.18.94,1.1,1.1,0,0,1-.91,1.26.74.74,0,0,1-.21,0c-1.63,0-3.26,0-4.9,0H11.36a1.09,1.09,0,0,1-1.15-1,1,1,0,0,1,0-.3m1.15,5.27a1.11,1.11,0,0,1-.13-2.21h9.89a1.06,1.06,0,0,1,1,.72,1.12,1.12,0,0,1-.32,1.23,1.23,1.23,0,0,1-.85.26H11.38m14.15,5.9a1.33,1.33,0,0,1-.55.12H19.25a1.12,1.12,0,0,1-1.18-.95,1.09,1.09,0,0,1,.8-1.23,1.84,1.84,0,0,1,.41,0h2.83c1,0,2,0,3,0a1.1,1.1,0,0,1,1.08,1.12,1.12,1.12,0,0,1-.64,1"/><path id="Path_167" data-name="Path 167" d="M29.91,6.49H26.18V2.87a.66.66,0,0,1,.61.21c.94.93,1.87,1.85,2.79,2.79a3.69,3.69,0,0,1,.33.62"/><path id="Path_168" data-name="Path 168" d="M33.89,15.35,35,16.48l-4.48,4.46-1.13-1.13,4.48-4.46"/><path id="Path_169" data-name="Path 169" d="M37.56,12.77a.82.82,0,0,1,.07,1.11c-.24.29-.53.55-.8.82l-.17.16L35.5,13.7c.31-.33.62-.7,1-1a.8.8,0,0,1,1.08.09"/></g></svg>