<svg id="Layer_1" data-name="Layer 1" xmlns="http://www.w3.org/2000/svg" xmlns:xlink="http://www.w3.org/1999/xlink" viewBox="0 0 40 35"><defs><style>.cls-1{fill:none;}.cls-2{clip-path:url(#clip-path);}</style><clipPath id="clip-path"><rect class="cls-1" x="5.81" y="4.39" width="30.38" height="28.09"/></clipPath></defs><g class="cls-2"><g id="Group_256" data-name="Group 256"><path id="Path_89" data-name="Path 89" d="M20,4.39H32.09c1.47,0,2.08.6,2.08,2.09q0,7.79,0,15.57c0,.24.16.6-.21.68a1.4,1.4,0,0,1-.94-.14c-1-.48-.89-1.28-.89-2.11,0-3.09,0-6.18,0-9.27,0-.54-.12-.73-.7-.73q-11.46,0-22.92,0c-.54,0-.66.17-.66.68q0,8.15,0,16.29c0,.62.19.74.77.74,5.43,0,10.86,0,16.29,0,1.13,0,1.08.14,1.12,1.25s-.44.82-1,.82H8.1c-1.73,0-2.29-.57-2.29-2.29V6.56C5.81,5,6.37,4.39,8,4.39H20m6.24,3.25c.08-.7-.2-1-.94-1s-.94.32-.95,1,.23,1,1,1,1-.27.91-1m4-.07c-.08.66.14,1,.91,1s1-.23,1-.92S32,6.61,31.22,6.62s-1,.23-1,1m-2.91,0c-.09.68.17,1,.92,1s.94-.28.94-.95-.19-1-.95-1-1,.28-.91,1"/><path id="Path_90" data-name="Path 90" d="M35.06,26.39a1,1,0,0,1,1.12.76.94.94,0,0,1,0,.44c-.07.38-.39.32-.63.36s-.55.18-.62.58.14.54.42.65c.56.23.51.54.23,1s-.46.89-1.07.42a.55.55,0,0,0-.77,0h0a.55.55,0,0,0-.16.77l0,.05c.35.66-.17.75-.58.92s-.82.27-1-.35c-.08-.31-.17-.56-.62-.57s-.57.24-.63.56c-.14.63-.49.57-.95.37s-.94-.23-.6-.91a.64.64,0,0,0-1-.82c-.52.38-.72.06-1-.36s-.49-.81.17-1.07c.34-.14.43-.36.4-.75s-.33-.45-.6-.47c-.85-.06-.56-.63-.52-1.1s.4-.68.89-.5a.46.46,0,0,0,.61-.21.08.08,0,0,0,0-.05c.17-.29.24-.52,0-.76-.5-.42-.39-.74.1-1.12s.78-.54,1.14.06c.18.31.43.3.75.19a.47.47,0,0,0,.35-.58v0c-.1-.7.29-.77.86-.78s.88.13.78.75a.53.53,0,0,0,.38.65h0c.29.1.52.09.69-.19.38-.65.74-.42,1.2,0s.49.71.06,1.09-.23.47,0,.76.27.4.52.28m-3.64,0A1.47,1.47,0,0,0,30,27.84a1.51,1.51,0,0,0,1.5,1.45,1.46,1.46,0,0,0,1.4-1.45,1.42,1.42,0,0,0-1.36-1.47h-.07"/><path id="Path_91" data-name="Path 91" d="M22.4,13.51c0,.12-.07.28-.12.43-1,3-1.91,6-2.88,8.93a1.5,1.5,0,0,1-.23.5.87.87,0,0,1-1.22.14.85.85,0,0,1-.33-.66,2.18,2.18,0,0,1,.11-.62q1.39-4.39,2.81-8.78a1.54,1.54,0,0,1,.24-.5.84.84,0,0,1,1-.31,1,1,0,0,1,.64.87"/><path id="Path_92" data-name="Path 92" d="M25.59,18.16c-.94-.44-1.74-.82-2.56-1.19-.57-.26-.94-.63-.7-1.3s.75-.67,1.48-.33l4,1.87a1,1,0,0,1,.74.95,1,1,0,0,1-.72.95l-4.18,1.94c-.56.26-1.08.23-1.35-.38s0-1,.61-1.27c.84-.37,1.66-.78,2.64-1.24"/><path id="Path_93" data-name="Path 93" d="M14.39,18.17c1,.47,1.81.86,2.63,1.23.58.26.86.67.6,1.27s-.78.63-1.33.38l-4.25-2a1,1,0,0,1,0-1.82l4.32-2a.84.84,0,0,1,1.16.22.69.69,0,0,1,.1.19.88.88,0,0,1-.38,1.18l-.15.06-2.7,1.28"/></g></g></svg>