<svg id="Layer_1" data-name="Layer 1" xmlns="http://www.w3.org/2000/svg" viewBox="0 0 40 35"><g id="Group_250" data-name="Group 250"><path id="Path_85" data-name="Path 85" d="M3.3,28.45c0-.75,0-1.46,0-2.16a.68.68,0,0,1,.38-.49,16.8,16.8,0,0,1,2.06-.73c.46-.13.58-.37.57-.92A17.07,17.07,0,0,1,11.6,10.93,30.73,30.73,0,0,1,14.1,9c.1,1.36.19,2.5.26,3.64l.42,6.16a1.61,1.61,0,0,0,.1.75c.16.25.32.52.67.53s.45-.37.6-.64,0-.41,0-.62V6.55h7.64v12.3a2.74,2.74,0,0,0,.13.85.56.56,0,0,0,.66.34c.29,0,.5-.42.54-.69.13-.91.17-1.83.23-2.75q.26-3.57.49-7.14c0-.11,0-.22.07-.33a11.77,11.77,0,0,1,3.2,2.51,17.37,17.37,0,0,1,4.53,12.49c0,.54.09.8.56.93.7.19,1.37.48,2.07.7.3.1.42.27.4.65,0,.65,0,1.31,0,2Zm16.64-2.62H28.4c.18,0,.42.06.53,0s.52-.53.51-.8-.32-.56-.54-.77-.31,0-.47,0H11.57c-.16,0-.37-.06-.47,0s-.54.51-.54.78.29.59.52.8.34,0,.52,0h8.34"/></g></svg>